<svg width="483" height="111" viewBox="0 0 483 111" fill="none" xmlns="http://www.w3.org/2000/svg">
<path d="M137.7 96V22.3H186.3V30.7H146.8V53.1H182.1V61.4H146.8V87.6H186.3V96H137.7ZM192.114 96V88.7H219.814L224.514 83.9V77.6L219.514 72.6H198.814L189.614 63.6V53L198.814 43.7H228.314V51.1H203.014L198.414 55.6V60.7L203.214 65.5H224.114L233.314 74.5V86.8L224.214 96H192.114ZM240.692 96V22.3H280.192L290.592 32.8V50.1L285.992 56.3L294.492 64.9V85.5L283.992 96H240.692ZM249.792 53.2H277.292L281.492 47.5V35.9L276.092 30.3L249.792 30.4V53.2ZM249.792 87.9H279.892L285.392 82.4V67.3L279.592 61.3H249.792V87.9ZM311.535 96L301.035 85.5V54.2L311.535 43.7H336.335L346.835 54.2V85.5L336.335 96H311.535ZM315.335 89H332.535L338.035 83.5L337.935 56.2L332.535 50.7H315.335L309.835 56.2V83.5L315.335 89ZM363.813 96L353.313 85.5V54.2L363.813 43.7H388.613L399.112 54.2V85.5L388.613 96H363.813ZM367.613 89H384.813L390.313 83.5L390.213 56.2L384.813 50.7H367.613L362.113 56.2V83.5L367.613 89ZM406.79 96V88.7H434.49L439.19 83.9V77.6L434.19 72.6H413.49L404.29 63.6V53L413.49 43.7H442.99V51.1H417.69L413.09 55.6V60.7L417.89 65.5H438.79L447.99 74.5V86.8L438.89 96H406.79ZM464.668 96L455.468 86.9V50.7H449.968V43.7H455.668L457.868 30.3H464.268V43.7H475.368V50.7H464.268V83.8L468.968 88.7H477.668V96H464.668Z" fill="black"/>
<path d="M24.85 8.72876C34.0681 2.87321 43.9959 -0.200169 54.7311 0.0101165C79.6726 0.498674 101.089 17.8619 106.339 42.0409C110.841 62.772 105.569 81.0145 90.4517 95.9407C79.6581 106.598 66.3727 111.946 51.0993 110.862C33.7278 109.63 20.1196 101.395 10.1673 87.1374C-5.87793 64.1506 -2.63903 33.2131 17.8103 14.0752C19.9251 12.096 22.268 10.389 24.85 8.72876ZM21.8715 62.4597C31.9336 64.2312 40.2426 69.1809 47.4021 76.3371C51.7134 80.6464 56.0895 84.9146 61.2584 88.2328C63.1425 89.4423 65.0138 90.7163 67.4328 91.296C70.5674 85.3645 75.4097 81.3352 81.2582 78.341C86.2196 75.801 91.5159 74.1286 96.6774 72.1066C97.9838 71.5948 98.9136 70.9284 99.325 69.44C100.412 65.5092 101.211 61.5029 101.36 57.4644C101.81 45.2685 98.8515 33.958 90.964 24.4582C78.6267 9.5992 62.9206 3.68145 43.7611 7.62437C41.7713 8.03387 41.1461 8.91363 41.1341 10.9426C41.1013 16.4749 40.1499 21.8708 37.0783 26.6089C30.8341 36.2411 22.0551 41.6046 10.4452 41.989C9.2061 42.0301 8.20347 42.0735 7.82839 43.6476C6.46703 49.3609 6.74901 55.1371 7.02409 60.9116C7.07776 62.0381 7.53565 63.0057 9.12083 62.7206C13.2104 61.9851 17.329 61.7494 21.8715 62.4597ZM34.9568 75.8644C27.2071 70.5847 18.8289 68.3217 9.3637 70.3392C9.57424 72.567 10.6681 74.2262 11.3101 76.0383C11.9486 77.8405 13.0595 78.5593 15.0208 78.4474C18.7996 78.2317 22.4831 78.9439 26.0852 80.0792C32.885 82.2225 38.4553 86.3568 43.6731 91.0256C48.727 95.5477 54.075 99.5707 60.7087 101.485C61.8964 101.828 63.2894 102.55 64.0532 100.648C64.766 98.874 63.8906 98.1154 62.4309 97.4186C57.8148 95.215 53.7147 92.2328 49.7918 88.9665C44.8042 84.8138 40.6253 79.7526 34.9568 75.8644ZM23.8622 17.407C18.2263 22.218 13.7663 27.8863 10.7974 34.834C22.0434 36.4063 36.4989 21.6954 33.8449 11.4361C30.0894 12.5348 27.1357 14.9191 23.8622 17.407ZM31.377 98.2127C36.7455 101.264 42.4673 103.23 49.2243 104.093C45.0912 101.551 41.7689 98.9785 38.606 96.196C35.9042 93.8192 33.1192 91.5521 29.9627 89.7902C26.4061 87.8049 22.6381 86.542 17.9388 86.2572C21.8478 91.2803 26.0572 95.1031 31.377 98.2127ZM80.3775 89.407C78.468 91.1615 76.2517 92.6098 74.5719 94.9566C78.9967 94.285 88.9945 87.2297 91.0896 83.3637C87.1661 84.7443 83.8172 86.8151 80.3775 89.407Z" fill="#4CAF50"/>
<path d="M90.1106 48.4951C93.6338 48.5795 92.9298 48.5795 94.8072 48.5795C90.295 53.9652 82.8335 63.085 78.235 68.3985C74.3003 72.9451 70.3817 77.5056 66.4398 82.046C65.7964 82.7871 65.9382 82.8415 64.7648 84.2495C65.2342 81.1988 65.4403 80.1868 65.7035 79.3214C66.4398 75.8014 67.3813 69.0944 69.1253 63.2635C69.9061 60.6531 69.701 60.4295 67.0417 60.3304C63.5308 60.1997 56.542 59.7439 53.0312 59.6091C53.9695 58.4357 53.2651 59.301 53.9695 58.4357C55.3061 56.793 54.609 57.6846 55.0742 57.0898C63.0138 46.9377 70.4755 36.4132 78.8288 26.5835C79.4817 25.8152 78.8288 26.5835 80.7269 24.6378C82.1349 23.4912 82.5112 22.5971 82.3696 23.4859C81.4113 29.5012 79.2721 39.8395 77.6779 45.7077C77.1444 47.6713 77.414 48.44 79.5887 48.3928C83.0236 48.3184 86.4628 48.4464 90.1106 48.4951Z" fill="#4CAF50"/>
<path d="M32.2252 50.6429C31.1243 48.9205 30.0688 47.3667 29.1351 45.743C28.4259 44.5095 28.5217 43.3533 29.8725 42.5149C31.1208 41.74 32.3225 41.4303 33.4257 42.7276C36.5686 46.4236 39.5559 50.2448 42.0513 54.408C42.9283 55.8712 43.1933 57.6224 41.509 58.8194C39.683 60.1171 38.466 58.9175 37.4056 57.518C35.7067 55.276 34.0167 53.0273 32.2252 50.6429Z" fill="#4CAF50"/>
<path d="M47.4068 24.0786C45.704 23.4029 45.3667 22.1924 45.6619 20.761C45.9584 19.3232 47.3073 19.4372 48.3005 19.3057C53.0035 18.6832 57.7186 18.1471 62.4359 17.6419C63.2687 17.5527 64.1567 17.6554 64.9766 17.8494C66.1315 18.1225 66.9001 18.8661 66.9379 20.1461C66.9745 21.3821 66.362 22.1902 65.2477 22.6846C63.4766 23.4705 61.5593 23.2107 59.7172 23.4455C55.7052 23.9571 51.6765 24.4326 47.4068 24.0786Z" fill="#4CAF50"/>
<path d="M57.2991 40.1751C56.7278 43.381 55.5 44.1776 52.8325 43.0461C48.8063 41.3381 44.998 39.1892 41.2842 36.891C40.0393 36.1207 38.6502 35.1816 39.6966 33.3299C40.6908 31.5704 41.9599 31.1292 43.9664 32.0387C47.8839 33.8145 51.5936 35.9552 55.3481 38.0227C56.1754 38.4783 56.9052 39.07 57.2991 40.1751Z" fill="#4CAF50"/>
<path d="M16.125 50.34C16.1606 48.5648 16.457 46.9727 18.3195 46.8226C20.1702 46.6734 20.6938 48.2084 21.0592 49.7304C21.5139 51.6247 21.8879 53.523 21.8398 55.4831C21.8064 56.8455 21.1336 57.699 19.7871 57.8978C18.5034 58.0874 17.7211 57.3794 17.3202 56.2301C16.6775 54.3874 16.322 52.4796 16.125 50.34Z" fill="#4CAF50"/>
</svg>
